<?xml version="1.0" standalone="no"?>
<!DOCTYPE svg PUBLIC "-//W3C//DTD SVG 20010904//EN"
 "http://www.w3.org/TR/2001/REC-SVG-20010904/DTD/svg10.dtd">
<svg version="1.0" xmlns="http://www.w3.org/2000/svg"
 width="512.000000pt" height="512.000000pt" viewBox="0 0 512.000000 512.000000"
 preserveAspectRatio="xMidYMid meet">
<metadata>
Created by potrace 1.14, written by Peter Selinger 2001-2017
</metadata>
<g transform="translate(0.000000,512.000000) scale(0.100000,-0.100000)"
fill="#000000" stroke="none">
<path d="M180 5107 c-93 -47 -154 -363 -131 -686 13 -187 31 -311 77 -541 36
-181 47 -228 116 -468 l41 -143 -36 -77 c-44 -97 -91 -229 -118 -335 -20 -75
-80 -428 -74 -435 1 -1 26 3 55 9 31 7 98 9 159 7 86 -4 122 -11 188 -36 92
-34 114 -47 225 -139 68 -56 130 -126 217 -241 67 -89 182 -341 241 -526 98
-310 142 -601 144 -964 l1 -213 100 -45 c295 -133 778 -251 1109 -270 298 -18
845 101 1248 273 l106 45 -5 152 c-13 361 58 798 184 1135 44 119 128 303 162
356 145 227 329 388 509 446 92 29 104 31 217 26 66 -2 128 -7 137 -11 20 -9
21 -24 -22 239 -31 187 -77 344 -147 503 l-45 102 40 143 c69 239 80 286 116
467 46 230 64 354 77 541 23 323 -38 639 -131 686 -79 40 -318 -14 -624 -142
-249 -103 -519 -245 -682 -356 -39 -27 -77 -49 -86 -49 -9 0 -105 18 -214 39
-346 69 -535 91 -774 91 -239 0 -428 -22 -774 -91 -109 -21 -205 -39 -214 -39
-9 0 -47 22 -86 49 -163 111 -433 253 -682 356 -306 128 -545 182 -624 142z
m1683 -862 c99 -26 177 -85 251 -190 47 -67 58 -90 80 -157 35 -107 46 -182
46 -306 0 -388 -169 -723 -459 -911 -218 -141 -492 -95 -640 108 -44 60 -94
169 -116 251 -28 107 -31 304 -6 430 47 236 131 411 273 568 81 90 220 180
318 206 72 19 182 20 253 1z m1688 -14 c67 -25 178 -97 238 -155 136 -129 254
-350 308 -578 22 -94 25 -349 4 -423 -36 -131 -58 -184 -112 -266 -138 -207
-393 -268 -619 -148 -183 98 -344 301 -428 541 -50 142 -65 228 -65 383 -1
112 3 158 21 230 55 221 189 384 352 430 77 21 227 14 301 -14z"/>
<path d="M73 2409 c-39 -9 -42 -12 -54 -62 -29 -118 -11 -327 62 -732 90 -495
115 -738 106 -1043 -7 -243 -28 -399 -73 -554 -5 -17 21 -18 459 -18 l465 0
11 78 c53 360 37 810 -40 1187 -133 641 -379 1049 -688 1139 -59 17 -181 20
-248 5z"/>
<path d="M4780 2397 c-98 -33 -157 -72 -245 -162 -163 -167 -291 -433 -385
-802 -72 -281 -98 -481 -107 -808 -5 -214 3 -381 28 -548 l11 -77 465 0 c418
0 465 2 459 16 -37 97 -67 323 -73 565 -8 301 15 533 97 989 22 118 49 276 61
350 25 158 30 351 10 427 -13 51 -13 52 -62 62 -82 18 -186 13 -259 -12z"/>
</g>
</svg>
